<?xml version="1.0" standalone="no"?>
<!DOCTYPE svg PUBLIC "-//W3C//DTD SVG 20010904//EN"
 "http://www.w3.org/TR/2001/REC-SVG-20010904/DTD/svg10.dtd">
<svg version="1.0" xmlns="http://www.w3.org/2000/svg"
 width="931.000000pt" height="931.000000pt" viewBox="0 0 931.000000 931.000000"
 preserveAspectRatio="xMidYMid meet">
<metadata>
Created by potrace 1.11, written by Peter Selinger 2001-2013
</metadata>
<g transform="translate(0.000000,931.000000) scale(0.100000,-0.100000)"
fill="#000000" stroke="none">
<path d="M6354 9300 c-12 -5 -34 -11 -50 -13 -114 -20 -450 -143 -609 -225
-81 -41 -257 -146 -288 -172 -6 -5 -39 -31 -72 -57 -129 -101 -255 -239 -350
-383 -179 -272 -300 -568 -361 -885 -4 -22 -9 -47 -11 -55 -2 -8 -5 -37 -7
-65 -3 -27 -7 -57 -9 -65 -7 -21 -16 -115 -23 -239 l-6 -103 80 6 c43 4 89 9
103 11 13 3 47 7 74 10 284 31 504 118 715 281 113 87 276 245 365 354 20 25
46 56 57 69 59 69 178 262 239 386 102 210 172 426 209 650 23 143 26 362 5
430 -9 28 -15 51 -15 53 2 24 -9 27 -46 12z"/>
<path d="M6369 7206 c-2 -2 -38 -6 -79 -10 -64 -5 -200 -27 -315 -51 -108 -22
-250 -63 -515 -150 -397 -129 -593 -171 -760 -161 -129 7 -293 41 -560 116
-388 108 -572 152 -735 175 -22 4 -47 8 -55 10 -8 2 -46 7 -85 11 -38 3 -79 8
-90 10 -11 3 -85 5 -165 5 -217 1 -337 -12 -524 -61 -396 -102 -729 -323
-1031 -686 -171 -204 -362 -543 -460 -819 -43 -120 -109 -343 -120 -408 -3
-15 -12 -58 -19 -95 -14 -64 -40 -238 -51 -332 -27 -245 -28 -799 -1 -970 2
-14 7 -52 11 -85 20 -186 86 -517 150 -755 59 -217 210 -638 302 -840 132
-292 268 -559 364 -719 22 -34 39 -65 39 -67 0 -22 361 -549 399 -584 4 -3 30
-34 60 -70 79 -95 306 -318 381 -373 36 -26 72 -54 80 -60 61 -49 204 -126
308 -165 134 -52 222 -67 377 -66 201 1 379 45 705 174 236 94 453 159 590
176 30 3 64 8 75 11 28 5 272 4 315 -2 19 -3 53 -7 75 -10 143 -17 321 -65
610 -164 475 -163 736 -204 962 -151 426 99 811 439 1245 1100 237 361 400
669 546 1030 44 108 124 341 120 346 -2 1 -41 17 -88 35 -295 113 -561 341
-792 679 -177 260 -295 546 -342 835 -8 50 -18 106 -21 125 -13 78 -13 426 1
530 55 417 218 772 503 1100 73 84 245 256 342 342 35 31 79 70 98 87 l33 30
-28 39 c-78 105 -287 318 -414 422 -30 25 -57 47 -60 50 -20 22 -206 139 -291
184 -222 117 -453 189 -714 221 -54 7 -370 16 -376 11z"/>
</g>
</svg>
